<svg width="50" height="50" viewBox="0 0 50 50" fill="none" xmlns="http://www.w3.org/2000/svg">
<path d="M25 2.05078C18.9135 2.05078 13.0763 4.46864 8.77245 8.77245C4.46864 13.0763 2.05078 18.9135 2.05078 25C2.05078 31.0865 4.46864 36.9237 8.77245 41.2275C13.0763 45.5314 18.9135 47.9492 25 47.9492C28.0137 47.9492 30.998 47.3556 33.7823 46.2023C36.5666 45.049 39.0965 43.3586 41.2275 41.2275C43.3586 39.0965 45.049 36.5666 46.2023 33.7823C47.3556 30.998 47.9492 28.0137 47.9492 25C47.9492 21.9863 47.3556 19.002 46.2023 16.2177C45.049 13.4334 43.3586 10.9035 41.2275 8.77245C39.0965 6.64142 36.5666 4.95099 33.7823 3.79769C30.998 2.64438 28.0137 2.05078 25 2.05078V2.05078ZM25 10.0586C33.2415 10.0586 39.9414 16.7585 39.9414 25C39.9414 33.2415 33.2415 39.9414 25 39.9414C16.7585 39.9414 10.0586 33.2415 10.0586 25C10.0586 16.7585 16.7585 10.0586 25 10.0586ZM25 11.8164C23.0062 11.8164 21.1175 12.2578 19.4248 13.0471C20.5524 16.258 22.4822 20.3125 25 20.3125C27.5218 20.3125 29.3873 16.2451 30.5422 13.0317C28.8579 12.2521 26.9809 11.8164 25 11.8164ZM34.6438 16.0039C31.9373 18.0687 28.6729 21.1592 29.4514 23.5554C30.2308 25.9542 34.6768 26.4712 38.0899 26.5765C38.1513 26.0595 38.1836 25.5337 38.1836 25C38.1836 21.5193 36.8403 18.3582 34.6438 16.0039V16.0039ZM15.3343 16.0276C13.1507 18.3793 11.8164 21.531 11.8164 25C11.8164 25.542 11.8496 26.076 11.9129 26.6006C15.3146 26.52 19.7626 25.9372 20.5402 23.5439C21.3189 21.1473 18.0324 18.1188 15.3343 16.0276ZM22.1886 20.2896C22.0116 20.2946 21.8402 20.353 21.6969 20.457C21.5083 20.5941 21.382 20.8004 21.3455 21.0306C21.3091 21.2608 21.3656 21.496 21.5025 21.6846C21.6395 21.8731 21.8458 21.9996 22.076 22.0361C22.3062 22.0726 22.5415 22.0162 22.7301 21.8792C22.8235 21.8114 22.9026 21.7258 22.9629 21.6274C23.0232 21.529 23.0636 21.4196 23.0816 21.3056C23.0997 21.1916 23.0951 21.0752 23.0682 20.9629C23.0412 20.8507 22.9925 20.7448 22.9246 20.6515C22.8406 20.5359 22.7296 20.4425 22.6014 20.3794C22.4731 20.3164 22.3314 20.2856 22.1886 20.2896V20.2896ZM27.8114 20.2896C27.7907 20.289 27.7699 20.2892 27.7492 20.29C27.6169 20.2956 27.4876 20.331 27.371 20.3936C27.2543 20.4562 27.1532 20.5443 27.0754 20.6514C27.0075 20.7448 26.9587 20.8506 26.9318 20.9628C26.9048 21.0751 26.9002 21.1916 26.9183 21.3056C26.9364 21.4196 26.9767 21.5289 27.0371 21.6274C27.0974 21.7258 27.1765 21.8114 27.2699 21.8792C27.4585 22.0162 27.6938 22.0726 27.924 22.0361C28.1542 21.9997 28.3605 21.8732 28.4975 21.6847C28.6344 21.4961 28.6909 21.2609 28.6545 21.0307C28.618 20.8005 28.4917 20.5942 28.3031 20.4571C28.1598 20.353 27.9885 20.2947 27.8114 20.2896V20.2896ZM25 21.875C24.1712 21.875 23.3763 22.2042 22.7903 22.7903C22.2042 23.3763 21.875 24.1712 21.875 25C21.875 25.8288 22.2042 26.6237 22.7903 27.2097C23.3763 27.7958 24.1712 28.125 25 28.125C25.8288 28.125 26.6237 27.7958 27.2097 27.2097C27.7958 26.6237 28.125 25.8288 28.125 25C28.125 24.1712 27.7958 23.3763 27.2097 22.7903C26.6237 22.2042 25.8288 21.875 25 21.875V21.875ZM20.4788 25.5895C20.3908 25.5908 20.3035 25.6053 20.2198 25.6325C20.11 25.6682 20.0083 25.7251 19.9206 25.8001C19.8328 25.875 19.7606 25.9665 19.7082 26.0694C19.6558 26.1722 19.6241 26.2844 19.6151 26.3994C19.606 26.5145 19.6197 26.6303 19.6554 26.74C19.7274 26.9617 19.8846 27.1457 20.0922 27.2515C20.2999 27.3573 20.5411 27.3763 20.7628 27.3043C20.8726 27.2686 20.9743 27.2117 21.062 27.1368C21.1498 27.0618 21.222 26.9703 21.2744 26.8675C21.3268 26.7647 21.3584 26.6525 21.3675 26.5374C21.3766 26.4224 21.3629 26.3067 21.3272 26.1969C21.2692 26.0183 21.1556 25.863 21.0029 25.7537C20.8502 25.6444 20.6666 25.5869 20.4788 25.5895V25.5895ZM29.5468 25.5903C29.3548 25.582 29.1654 25.6368 29.0076 25.7463C28.8497 25.8558 28.7321 26.0141 28.6728 26.1968C28.6371 26.3066 28.6234 26.4223 28.6325 26.5373C28.6416 26.6524 28.6732 26.7646 28.7256 26.8674C28.778 26.9702 28.8502 27.0617 28.938 27.1367C29.0257 27.2116 29.1274 27.2685 29.2372 27.3042C29.4589 27.3762 29.7001 27.3572 29.9077 27.2514C30.1154 27.1456 30.2726 26.9617 30.3446 26.74C30.3803 26.6303 30.394 26.5145 30.3849 26.3994C30.3759 26.2844 30.3442 26.1722 30.2918 26.0694C30.2394 25.9665 30.1672 25.875 30.0794 25.8001C29.9917 25.7251 29.89 25.6682 29.7802 25.6325C29.7046 25.608 29.6261 25.5938 29.5468 25.5903V25.5903ZM20.5484 28.2967C18.44 28.3068 15.6422 29.9404 13.4758 31.4146C15.3341 34.7514 18.5988 37.1924 22.4741 37.9417C23.4497 34.681 24.2729 30.2642 22.2353 28.7838C21.7612 28.4394 21.1867 28.2936 20.5484 28.2967ZM29.4367 28.2986C28.7941 28.2986 28.2168 28.4467 27.7428 28.791C25.7022 30.2735 26.5843 34.6607 27.5389 37.9393C31.4145 37.1858 34.6783 34.74 36.533 31.3989C34.384 29.9122 31.5589 28.2986 29.4367 28.2985V28.2986ZM25 28.8652C24.7669 28.8652 24.5433 28.9578 24.3785 29.1227C24.2137 29.2875 24.1211 29.511 24.1211 29.7441C24.1211 29.9772 24.2137 30.2008 24.3785 30.3656C24.5433 30.5304 24.7669 30.623 25 30.623C25.2331 30.623 25.4567 30.5304 25.6215 30.3656C25.7863 30.2008 25.8789 29.9772 25.8789 29.7441C25.8789 29.511 25.7863 29.2875 25.6215 29.1227C25.4567 28.9578 25.2331 28.8652 25 28.8652Z" fill="#B50C09"/>
<path d="M45.8991 19.4131L38.9777 12.5173C38.5932 12.6672 38.1963 12.7838 37.787 12.8671C37.3771 12.9504 36.9548 12.992 36.5201 12.992C34.6978 12.992 33.1557 12.3631 31.8938 11.1052C30.6313 9.84796 30 8.31157 30 6.49601C30 5.79644 30.1047 5.12186 30.314 4.47226C30.5226 3.82265 30.8276 3.22302 31.2288 2.67336L35.0656 6.49601L36.4951 5.09687L32.6582 1.24923C33.2266 0.832822 33.8368 0.520347 34.4889 0.311809C35.1409 0.103936 35.8096 0 36.4951 0C38.3173 0 39.8598 0.628614 41.1223 1.88584C42.3842 3.14374 43.0152 4.68046 43.0152 6.49601C43.0152 6.92908 42.9734 7.35782 42.8898 7.78222C42.8062 8.2073 42.6808 8.61138 42.5136 8.99448L49.4099 15.8653C49.7945 16.2484 49.9911 16.7187 49.9998 17.2764C50.0078 17.8347 49.8195 18.3054 49.435 18.6885L48.7579 19.3881C48.3734 19.7879 47.9009 19.9917 47.3405 19.9997C46.7808 20.0084 46.3003 19.8128 45.8991 19.4131V19.4131Z" fill="white"/>
</svg>
