<svg width="14" height="14" viewBox="0 0 14 14" fill="none" xmlns="http://www.w3.org/2000/svg">
<g clip-path="url(#clip0_4_11)">
<path fill-rule="evenodd" clip-rule="evenodd" d="M13.125 7.03693C13.125 3.6545 10.3824 0.911926 7 0.911926C3.61758 0.911926 0.875 3.6545 0.875 7.03693C0.875 10.094 3.11445 12.6279 6.04297 13.0878V8.80798H4.48738V7.03693H6.04297V5.68751C6.04297 4.15271 6.95762 3.30423 8.35652 3.30423C9.02672 3.30423 9.72781 3.424 9.72781 3.424V4.93146H8.95508C8.19465 4.93146 7.95676 5.40341 7.95676 5.88849V7.03693H9.65535L9.3841 8.80798H7.95703V13.0884C10.8855 12.6287 13.125 10.0948 13.125 7.03693V7.03693Z" fill="white"/>
</g>
<defs>
<clipPath id="clip0_4_11">
<rect width="14" height="14" fill="white"/>
</clipPath>
</defs>
</svg>
