<svg width="14" height="14" viewBox="0 0 14 14" fill="none" xmlns="http://www.w3.org/2000/svg">
<g clip-path="url(#clip0_4_13)">
<path d="M9.55199 1.89574C10.2283 1.89776 10.8763 2.16731 11.3545 2.64551C11.8327 3.12372 12.1022 3.77173 12.1043 4.44801V9.55199C12.1022 10.2283 11.8327 10.8763 11.3545 11.3545C10.8763 11.8327 10.2283 12.1022 9.55199 12.1043H4.44801C3.77173 12.1022 3.12372 11.8327 2.64551 11.3545C2.16731 10.8763 1.89776 10.2283 1.89574 9.55199V4.44801C1.89776 3.77173 2.16731 3.12372 2.64551 2.64551C3.12372 2.16731 3.77173 1.89776 4.44801 1.89574H9.55199M9.55199 0.875H4.44801C2.48281 0.875 0.875 2.48281 0.875 4.44801V9.55199C0.875 11.5172 2.48281 13.125 4.44801 13.125H9.55199C11.5172 13.125 13.125 11.5172 13.125 9.55199V4.44801C13.125 2.48281 11.5172 0.875 9.55199 0.875V0.875Z" fill="white"/>
<path d="M10.3176 4.448C10.1662 4.448 10.0182 4.4031 9.89226 4.31897C9.76635 4.23484 9.66822 4.11526 9.61027 3.97537C9.55232 3.83547 9.53716 3.68152 9.5667 3.53301C9.59625 3.38449 9.66917 3.24807 9.77624 3.14099C9.88331 3.03392 10.0197 2.961 10.1683 2.93146C10.3168 2.90192 10.4707 2.91708 10.6106 2.97503C10.7505 3.03298 10.8701 3.13111 10.9542 3.25701C11.0383 3.38292 11.0832 3.53095 11.0832 3.68237C11.0835 3.78298 11.0638 3.88263 11.0254 3.97562C10.987 4.06861 10.9306 4.1531 10.8595 4.22423C10.7883 4.29537 10.7039 4.35176 10.6109 4.39016C10.5179 4.42856 10.4182 4.44821 10.3176 4.448V4.448ZM7 4.95823C7.40382 4.95823 7.79858 5.07798 8.13434 5.30233C8.47011 5.52668 8.7318 5.84556 8.88634 6.21864C9.04088 6.59173 9.08131 7.00225 9.00253 7.39832C8.92375 7.79438 8.72929 8.15819 8.44374 8.44373C8.1582 8.72928 7.79439 8.92373 7.39833 9.00252C7.00227 9.0813 6.59174 9.04086 6.21865 8.88633C5.84557 8.73179 5.52669 8.4701 5.30234 8.13433C5.07799 7.79856 4.95824 7.40381 4.95824 6.99999C4.95882 6.45866 5.17412 5.93967 5.5569 5.55689C5.93968 5.17411 6.45867 4.95881 7 4.95823M7 3.93749C6.3943 3.93749 5.80219 4.1171 5.29857 4.45361C4.79494 4.79013 4.40241 5.26842 4.17062 5.82802C3.93883 6.38762 3.87818 7.00339 3.99635 7.59745C4.11451 8.19152 4.40619 8.73721 4.83449 9.1655C5.26279 9.5938 5.80847 9.88548 6.40254 10.0036C6.9966 10.1218 7.61237 10.0612 8.17197 9.82937C8.73157 9.59758 9.20987 9.20505 9.54638 8.70142C9.88289 8.1978 10.0625 7.6057 10.0625 6.99999C10.0625 6.18776 9.73985 5.40881 9.16552 4.83448C8.59119 4.26015 7.81223 3.93749 7 3.93749V3.93749Z" fill="white"/>
</g>
<defs>
<clipPath id="clip0_4_13">
<rect width="14" height="14" fill="white"/>
</clipPath>
</defs>
</svg>
