<svg width="14" height="14" viewBox="0 0 14 14" fill="none" xmlns="http://www.w3.org/2000/svg">
<path d="M13.5625 2.99415C13.0702 3.20807 12.5492 3.34901 12.0162 3.4125C12.5764 3.08448 12.9977 2.56336 13.201 1.94688C12.6714 2.25657 12.0929 2.47387 11.4904 2.58946C11.2367 2.32355 10.9315 2.11201 10.5935 1.9677C10.2555 1.82339 9.89164 1.74933 9.5241 1.75C8.03605 1.75 6.83184 2.93672 6.83184 4.39961C6.83078 4.6031 6.8541 4.80597 6.90129 5.00391C5.83425 4.95389 4.7894 4.68169 3.83359 4.20472C2.87778 3.72776 2.03205 3.05653 1.35051 2.23399C1.11141 2.63707 0.984958 3.09697 0.984375 3.56563C0.984375 4.48438 1.46371 5.29649 2.1875 5.77227C1.75868 5.76209 1.33864 5.64859 0.963047 5.44141V5.47422C0.963047 6.75938 1.89273 7.82852 3.1232 8.07188C2.89182 8.13356 2.65337 8.16482 2.41391 8.16485C2.24399 8.16514 2.07445 8.14866 1.90777 8.11563C2.24984 9.16836 3.24543 9.93399 4.42477 9.95586C3.46647 10.6944 2.28993 11.0936 1.08008 11.0906C0.865325 11.0903 0.650772 11.0775 0.4375 11.0523C1.66829 11.8383 3.09899 12.254 4.5593 12.25C9.51836 12.25 12.2276 8.21133 12.2276 4.7086C12.2276 4.59375 12.2246 4.47891 12.2191 4.3668C12.7449 3.99276 13.1999 3.52793 13.5625 2.99415V2.99415Z" fill="white"/>
</svg>
